<?xml version="1.0" encoding="UTF-8"?>
<svg xmlns="http://www.w3.org/2000/svg" xmlns:xlink="http://www.w3.org/1999/xlink" width="375pt" height="374.999991pt" viewBox="0 0 375 374.999991" version="1.2">
<defs>
<clipPath id="clip1">
  <path d="M 78.566406 78.566406 L 296.066406 78.566406 L 296.066406 296.066406 L 78.566406 296.066406 Z M 78.566406 78.566406 "/>
</clipPath>
</defs>
<g id="surface1">
<g clip-path="url(#clip1)" clip-rule="nonzero">
<path style=" stroke:none;fill-rule:nonzero;fill:rgb(90.19928%,77.249146%,66.268921%);fill-opacity:1;" d="M 187.316406 78.566406 C 127.359375 78.566406 78.566406 127.359375 78.566406 187.316406 C 78.566406 247.269531 127.359375 296.066406 187.316406 296.066406 C 247.269531 296.066406 296.066406 247.269531 296.066406 187.316406 C 296.066406 127.320312 247.269531 78.566406 187.316406 78.566406 Z M 84.511719 187.316406 C 84.511719 130.617188 130.617188 84.511719 187.316406 84.511719 C 237.699219 84.511719 279.730469 120.925781 288.449219 168.824219 C 275.617188 169.679688 252.117188 179.738281 245.886719 182.753906 C 245.191406 183.078125 244.296875 183.527344 243.277344 184.054688 C 243.277344 183.933594 243.277344 183.851562 243.277344 183.730469 C 243.277344 152.898438 218.1875 127.808594 187.355469 127.808594 C 156.523438 127.808594 131.433594 152.898438 131.433594 183.730469 C 131.433594 184.339844 131.433594 184.910156 131.472656 185.523438 C 125.363281 187.4375 118.886719 189.882812 112.535156 192.730469 C 98.5625 198.882812 89.644531 200.796875 85.570312 201.367188 C 84.835938 196.765625 84.511719 192.082031 84.511719 187.316406 Z M 237.292969 183.730469 C 237.292969 184.871094 237.25 185.972656 237.167969 187.113281 C 232.242188 189.597656 225.683594 192.855469 218.1875 196.519531 C 217.414062 196.195312 216.601562 195.867188 215.828125 195.542969 C 183.078125 182.0625 167.277344 180.511719 155.054688 180.839844 C 150.210938 180.960938 144.058594 182.0625 137.339844 183.851562 C 137.339844 183.8125 137.339844 183.8125 137.339844 183.769531 C 137.339844 156.195312 159.742188 133.796875 187.316406 133.796875 C 214.847656 133.753906 237.292969 156.15625 237.292969 183.730469 Z M 86.464844 207.230469 C 91.152344 206.539062 100.558594 204.460938 114.855469 198.148438 C 129.761719 191.46875 145.605469 186.988281 155.21875 186.703125 C 166.460938 186.378906 181.042969 187.804688 210.980469 199.941406 C 196.152344 207.070312 179.046875 214.929688 164.667969 220.386719 C 138.640625 230.285156 102.148438 229.917969 93.636719 229.675781 C 90.417969 222.585938 88.015625 215.050781 86.464844 207.230469 Z M 187.316406 290.078125 C 173.058594 290.078125 159.496094 287.144531 147.113281 281.890625 C 150.65625 279.445312 155.546875 275.660156 159.660156 271.179688 C 166.828125 263.359375 194.808594 242.871094 221.609375 246.292969 C 241.769531 248.859375 257.289062 253.09375 264.335938 255.253906 C 245.476562 276.597656 217.945312 290.078125 187.316406 290.078125 Z M 268.449219 250.285156 C 262.746094 248.453125 245.761719 243.402344 222.34375 240.386719 C 193.179688 236.640625 162.957031 258.714844 155.21875 267.144531 C 150.167969 272.6875 143.570312 277.125 140.761719 278.917969 C 121.984375 269.347656 106.546875 254.195312 96.609375 235.660156 C 97.789062 235.660156 99.132812 235.703125 100.640625 235.703125 C 115.222656 235.703125 144.222656 234.480469 166.746094 225.925781 C 183.078125 219.695312 202.304688 210.777344 218.351562 202.996094 C 228.859375 207.4375 238.796875 211.917969 247.757812 215.988281 C 261.851562 222.382812 273.417969 227.597656 280.953125 229.714844 C 277.574219 237.046875 273.378906 243.972656 268.449219 250.285156 Z M 250.203125 210.53125 C 242.585938 207.109375 234.238281 203.320312 225.4375 199.535156 C 230.9375 196.847656 235.867188 194.363281 239.980469 192.324219 C 243.726562 190.453125 246.660156 188.984375 248.453125 188.128906 C 260.222656 182.507812 280.300781 175.054688 289.34375 174.730469 C 289.832031 178.84375 290.117188 183.039062 290.117188 187.316406 C 290.117188 200.308594 287.675781 212.730469 283.277344 224.175781 C 276.390625 222.382812 264.132812 216.84375 250.203125 210.53125 Z M 250.203125 210.53125 "/>
</g>
<path style=" stroke:none;fill-rule:nonzero;fill:rgb(90.19928%,77.249146%,66.268921%);fill-opacity:1;" d="M 122.105469 152.449219 C 119.703125 151.878906 117.789062 149.964844 117.21875 147.5625 C 117.175781 147.359375 116.890625 147.359375 116.851562 147.5625 C 116.28125 149.964844 114.367188 151.878906 111.964844 152.449219 C 111.761719 152.492188 111.761719 152.777344 111.964844 152.816406 C 114.367188 153.386719 116.28125 155.300781 116.851562 157.703125 C 116.890625 157.90625 117.175781 157.90625 117.21875 157.703125 C 117.789062 155.300781 119.703125 153.386719 122.105469 152.816406 C 122.308594 152.734375 122.308594 152.492188 122.105469 152.449219 Z M 122.105469 152.449219 "/>
<path style=" stroke:none;fill-rule:nonzero;fill:rgb(90.19928%,77.249146%,66.268921%);fill-opacity:1;" d="M 222.667969 116.933594 C 220.265625 116.363281 218.390625 114.449219 217.78125 112.046875 C 217.742188 111.839844 217.457031 111.839844 217.414062 112.046875 C 216.84375 114.449219 214.929688 116.320312 212.527344 116.933594 C 212.324219 116.972656 212.324219 117.257812 212.527344 117.300781 C 214.929688 117.871094 216.804688 119.785156 217.414062 122.1875 C 217.457031 122.390625 217.742188 122.390625 217.78125 122.1875 C 218.351562 119.785156 220.265625 117.910156 222.667969 117.300781 C 222.871094 117.257812 222.871094 116.972656 222.667969 116.933594 Z M 222.667969 116.933594 "/>
<path style=" stroke:none;fill-rule:nonzero;fill:rgb(90.19928%,77.249146%,66.268921%);fill-opacity:1;" d="M 266.046875 161.738281 C 263.644531 161.167969 261.769531 159.25 261.160156 156.847656 C 261.117188 156.644531 260.832031 156.644531 260.792969 156.847656 C 260.222656 159.25 258.308594 161.125 255.90625 161.738281 C 255.703125 161.777344 255.703125 162.0625 255.90625 162.101562 C 258.308594 162.671875 260.179688 164.585938 260.792969 166.992188 C 260.832031 167.195312 261.117188 167.195312 261.160156 166.992188 C 261.730469 164.585938 263.644531 162.714844 266.046875 162.101562 C 266.25 162.0625 266.25 161.777344 266.046875 161.738281 Z M 266.046875 161.738281 "/>
</g>
</svg>
